<?xml version="1.0" encoding="iso-8859-1"?>
<!-- Generator: Adobe Illustrator 19.0.0, SVG Export Plug-In . SVG Version: 6.00 Build 0)  -->
<svg version="1.1" id="Layer_1" xmlns="http://www.w3.org/2000/svg" xmlns:xlink="http://www.w3.org/1999/xlink" x="0px" y="0px"
	 viewBox="0 0 464.316 464.316" style="enable-background:new 0 0 464.316 464.316;" xml:space="preserve">
<g>
	<g>
		<path d="M449.409,155.756l-17.044-44.168c-3.384-8.776-12.668-15.148-22.08-15.148H56.777c-9.52,0-18.136,5.656-21.92,14.392
			l-19.356,44.656c-3.14,7.252,1.436,15.904,10.104,16.772c5.156,0.52,9.972-2.728,12.032-7.484l19.108-44.092
			c0.124-0.08,1.184-0.288,1.308-0.368h352l17.036,44.268c1.84,4.764,6.384,7.684,11.2,7.684c2.608,0,5.308-0.86,7.7-2.76
			C450.053,166.28,451.277,160.6,449.409,155.756z"/>
	</g>
</g>
<g>
	<g>
		<path d="M402.053,288.316H258.285c-6.628,0-8.232,5.372-8.232,12s1.604,12,8.232,12h143.768c2.168,0,4,1.832,4,4v120
			c0,2.168-1.832,4-4,4h-344c-2.168,0-4-1.832-4-4v-120c0-2.168,1.832-4,4-4h140.232c6.628,0,12-5.372,12-12s-5.372-12-12-12H58.053
			c-15.436,0-28,12.564-28,28v120c0,15.436,12.564,28,28,28h344c15.44,0,28-12.56,28-28v-120
			C430.053,300.88,417.489,288.316,402.053,288.316z"/>
	</g>
</g>
<g>
	<g>
		<path d="M437.821,148.316c-6.628,0-11.768,5.372-11.768,12v120c0,2.168-2.064,4-4.232,4H262.053c-6.628,0-12,5.372-12,12
			s5.372,12,12,12h159.768c15.44,0,28-12.56,28-28v-120C449.821,153.688,444.449,148.316,437.821,148.316z"/>
	</g>
</g>
<g>
	<g>
		<path d="M202.053,284.316H41.821c-2.168,0-4-1.832-4-4v-120c0-6.628-5.372-12-12-12s-11.768,5.372-11.768,12v120
			c0,15.436,12.332,28,27.768,28h160.232c6.628,0,12-5.372,12-12S208.681,284.316,202.053,284.316z"/>
	</g>
</g>
<g>
	<g>
		<path d="M437.821,164.316H258.053c-4.416,0-8,3.58-8,8c0,4.416,3.584,8,8,8h179.768c4.42,0,8-3.58,8-8
			S442.237,164.316,437.821,164.316z"/>
	</g>
</g>
<g>
	<g>
		<path d="M206.053,164.316H25.821c-4.416,0-8,3.58-8,8c0,4.416,3.584,8,8,8h180.232c4.416,0,8-3.58,8-8
			S210.469,164.316,206.053,164.316z"/>
	</g>
</g>
<g>
	<g>
		<path d="M258.053,120.316h-52c-4.416,0-8,3.58-8,8v316c0,4.416,3.584,8,8,8h52c4.416,0,8-3.58,8-8v-316
			C266.053,123.896,262.469,120.316,258.053,120.316z M250.053,436.316h-36v-300h36V436.316z"/>
	</g>
</g>
<g>
	<g>
		<path d="M339.185,15.288C329.325,5.432,316.221,0,302.281,0c-13.944,0-27.048,5.428-36.904,15.284
			c-16.86,16.856-41.8,90.656-46.628,105.276c-1.42,4.304-0.296,9.044,2.912,12.248c2.284,2.288,5.352,3.516,8.484,3.516
			c1.264,0,2.532-0.196,3.764-0.604c14.624-4.828,88.42-29.772,105.276-46.628c9.856-9.86,15.28-22.964,15.28-36.904
			S349.041,25.144,339.185,15.288z M322.217,72.124c0,0,0,0-0.004,0c-7.456,7.456-41.74,21.604-72.628,32.768
			c11.16-30.888,25.304-65.172,32.768-72.636c5.324-5.324,12.4-8.256,19.932-8.256c7.524,0,14.604,2.932,19.932,8.264
			c5.324,5.32,8.252,12.4,8.252,19.928C330.469,59.72,327.541,66.8,322.217,72.124z"/>
	</g>
</g>
<g>
	<g>
		<path d="M245.773,120.56c-4.828-14.62-29.768-88.42-46.628-105.272c-20.344-20.352-53.46-20.352-73.804,0
			c-20.344,20.348-20.344,53.456,0,73.804c16.856,16.856,90.652,41.8,105.276,46.628c1.232,0.408,2.5,0.604,3.76,0.604
			c3.132,0,6.2-1.228,8.484-3.516C246.069,129.604,247.193,124.864,245.773,120.56z M142.313,72.12
			c-10.992-10.992-10.992-28.872-0.004-39.864c5.496-5.492,12.712-8.24,19.932-8.24c7.22,0,14.436,2.744,19.936,8.236v0.004
			c7.46,7.456,21.604,41.744,32.768,72.632C184.061,93.728,149.773,79.584,142.313,72.12z"/>
	</g>
</g>
<g>
</g>
<g>
</g>
<g>
</g>
<g>
</g>
<g>
</g>
<g>
</g>
<g>
</g>
<g>
</g>
<g>
</g>
<g>
</g>
<g>
</g>
<g>
</g>
<g>
</g>
<g>
</g>
<g>
</g>
</svg>
